<svg width="128" height="58" viewBox="0 0 128 58" fill="none" xmlns="http://www.w3.org/2000/svg">
<path d="M53.9835 36.8109V49.7347H49.6098V33.3028H53.7101L53.9835 36.8109ZM53.3457 40.9417H52.1611C52.1611 39.7267 52.318 38.6333 52.6319 37.6614C52.9458 36.6793 53.3862 35.8441 53.9531 35.1556C54.5201 34.457 55.1934 33.9255 55.9729 33.561C56.7626 33.1864 57.6435 32.9991 58.6154 32.9991C59.3848 32.9991 60.0885 33.1105 60.7263 33.3332C61.3642 33.5559 61.9109 33.9103 62.3665 34.3963C62.8322 34.8822 63.1865 35.5251 63.4295 36.325C63.6826 37.1248 63.8092 38.1018 63.8092 39.256V49.7347H59.4051V39.2408C59.4051 38.5118 59.3039 37.9449 59.1014 37.5399C58.8989 37.1349 58.6002 36.8514 58.2054 36.6894C57.8206 36.5173 57.3448 36.4313 56.7778 36.4313C56.1906 36.4313 55.6793 36.5477 55.244 36.7806C54.8188 37.0134 54.4644 37.3374 54.1809 37.7525C53.9076 38.1575 53.7 38.6333 53.5583 39.18C53.4165 39.7267 53.3457 40.314 53.3457 40.9417ZM66.4365 41.6858V41.3669C66.4365 40.1621 66.6086 39.0535 66.9528 38.041C67.297 37.0185 67.7982 36.1326 68.4563 35.3834C69.1144 34.6342 69.9243 34.052 70.8861 33.6369C71.8479 33.2117 72.9515 32.9991 74.1968 32.9991C75.4421 32.9991 76.5507 33.2117 77.5226 33.6369C78.4946 34.052 79.3096 34.6342 79.9677 35.3834C80.6359 36.1326 81.1421 37.0185 81.4863 38.041C81.8306 39.0535 82.0027 40.1621 82.0027 41.3669V41.6858C82.0027 42.8805 81.8306 43.9891 81.4863 45.0117C81.1421 46.0241 80.6359 46.91 79.9677 47.6693C79.3096 48.4185 78.4996 49.0007 77.5378 49.4158C76.576 49.8309 75.4725 50.0384 74.2272 50.0384C72.9819 50.0384 71.8733 49.8309 70.9013 49.4158C69.9395 49.0007 69.1245 48.4185 68.4563 47.6693C67.7982 46.91 67.297 46.0241 66.9528 45.0117C66.6086 43.9891 66.4365 42.8805 66.4365 41.6858ZM70.8102 41.3669V41.6858C70.8102 42.3743 70.8709 43.0172 70.9924 43.6145C71.1139 44.2118 71.3063 44.7383 71.5695 45.1939C71.8429 45.6394 72.1972 45.9887 72.6326 46.2418C73.0679 46.4949 73.5995 46.6214 74.2272 46.6214C74.8346 46.6214 75.356 46.4949 75.7914 46.2418C76.2267 45.9887 76.576 45.6394 76.8393 45.1939C77.1025 44.7383 77.2948 44.2118 77.4163 43.6145C77.548 43.0172 77.6138 42.3743 77.6138 41.6858V41.3669C77.6138 40.6987 77.548 40.071 77.4163 39.4838C77.2948 38.8864 77.0974 38.36 76.8241 37.9044C76.5608 37.4386 76.2115 37.0742 75.7762 36.8109C75.3408 36.5477 74.8144 36.4161 74.1968 36.4161C73.5792 36.4161 73.0527 36.5477 72.6174 36.8109C72.1922 37.0742 71.8429 37.4386 71.5695 37.9044C71.3063 38.36 71.1139 38.8864 70.9924 39.4838C70.8709 40.071 70.8102 40.6987 70.8102 41.3669ZM89.0644 36.7046V49.7347H84.6755V33.3028H88.7911L89.0644 36.7046ZM88.457 40.9417H87.242C87.242 39.7976 87.3787 38.7447 87.6521 37.7829C87.9356 36.8109 88.3456 35.9706 88.8822 35.2619C89.4289 34.5431 90.1022 33.9862 90.902 33.5914C91.7018 33.1965 92.6282 32.9991 93.6811 32.9991C94.4101 32.9991 95.0783 33.1105 95.6858 33.3332C96.2932 33.5458 96.8146 33.885 97.25 34.3507C97.6954 34.8063 98.0397 35.4036 98.2827 36.1427C98.5256 36.8717 98.6471 37.7474 98.6471 38.77V49.7347H94.2734V39.256C94.2734 38.5068 94.1722 37.9297 93.9697 37.5247C93.7672 37.1197 93.4786 36.8362 93.104 36.6742C92.7396 36.5123 92.2992 36.4313 91.7828 36.4313C91.2159 36.4313 90.7198 36.5477 90.2945 36.7806C89.8794 37.0134 89.5352 37.3374 89.2619 37.7525C88.9885 38.1575 88.786 38.6333 88.6544 39.18C88.5228 39.7267 88.457 40.314 88.457 40.9417ZM98.2371 40.4405L96.6729 40.6379C96.6729 39.5648 96.8045 38.5675 97.0677 37.6462C97.3411 36.7249 97.741 35.9149 98.2675 35.2163C98.8041 34.5178 99.4672 33.9761 100.257 33.5914C101.047 33.1965 101.958 32.9991 102.99 32.9991C103.78 32.9991 104.499 33.1155 105.147 33.3484C105.795 33.5711 106.347 33.9305 106.802 34.4266C107.268 34.9126 107.622 35.5504 107.865 36.3401C108.118 37.1298 108.245 38.0967 108.245 39.2408V49.7347H103.856V39.2408C103.856 38.4814 103.755 37.9044 103.552 37.5095C103.36 37.1045 103.077 36.8261 102.702 36.6742C102.337 36.5123 101.902 36.4313 101.396 36.4313C100.869 36.4313 100.409 36.5376 100.014 36.7502C99.6191 36.9527 99.29 37.2362 99.0268 37.6006C98.7636 37.9651 98.5661 38.3903 98.4345 38.8763C98.3029 39.3521 98.2371 39.8735 98.2371 40.4405ZM120.501 46.0292V38.7092C120.501 38.1828 120.415 37.7322 120.242 37.3576C120.07 36.9729 119.802 36.6742 119.438 36.4616C119.083 36.249 118.623 36.1427 118.056 36.1427C117.57 36.1427 117.149 36.2288 116.795 36.4009C116.441 36.5629 116.167 36.8008 115.975 37.1147C115.783 37.4184 115.686 37.7778 115.686 38.1929H111.313C111.313 37.4943 111.475 36.8312 111.799 36.2035C112.123 35.5758 112.593 35.024 113.211 34.5481C113.829 34.0622 114.563 33.6825 115.413 33.4091C116.274 33.1358 117.235 32.9991 118.299 32.9991C119.574 32.9991 120.708 33.2117 121.7 33.6369C122.693 34.0622 123.472 34.7 124.039 35.5504C124.616 36.4009 124.905 37.4639 124.905 38.7396V45.771C124.905 46.6721 124.96 47.4111 125.072 47.9882C125.183 48.5552 125.345 49.0513 125.558 49.4765V49.7347H121.138C120.926 49.2892 120.764 48.7324 120.652 48.0642C120.551 47.3858 120.501 46.7075 120.501 46.0292ZM121.078 39.7267L121.108 42.2022H118.663C118.086 42.2022 117.585 42.268 117.16 42.3996C116.734 42.5312 116.385 42.7185 116.112 42.9615C115.838 43.1943 115.636 43.4677 115.504 43.7816C115.383 44.0954 115.322 44.4396 115.322 44.8142C115.322 45.1888 115.408 45.528 115.58 45.8317C115.752 46.1253 116 46.3582 116.324 46.5303C116.648 46.6923 117.028 46.7733 117.463 46.7733C118.121 46.7733 118.693 46.6417 119.179 46.3785C119.665 46.1152 120.04 45.7912 120.303 45.4065C120.577 45.0218 120.718 44.6573 120.728 44.3131L121.883 46.1658C121.721 46.5809 121.498 47.0112 121.214 47.4567C120.941 47.9022 120.592 48.3223 120.166 48.7172C119.741 49.1019 119.23 49.4208 118.633 49.6739C118.035 49.9169 117.327 50.0384 116.507 50.0384C115.464 50.0384 114.517 49.8309 113.667 49.4158C112.826 48.9905 112.158 48.4084 111.662 47.6693C111.176 46.9201 110.933 46.0697 110.933 45.118C110.933 44.2574 111.095 43.493 111.419 42.8248C111.743 42.1566 112.219 41.5947 112.847 41.1391C113.484 40.6734 114.279 40.3241 115.231 40.0912C116.183 39.8482 117.286 39.7267 118.542 39.7267H121.078Z" fill="#6E7698"/>
<path d="M58.585 24.4592C58.585 24.1454 58.4939 23.8619 58.3117 23.6088C58.1294 23.3557 57.7903 23.1228 57.2942 22.9102C56.8082 22.6875 56.1046 22.485 55.1832 22.3027C54.353 22.1205 53.5785 21.8927 52.8597 21.6193C52.151 21.3359 51.5334 20.9967 51.0069 20.6018C50.4906 20.207 50.0856 19.7413 49.792 19.2047C49.4984 18.658 49.3516 18.0353 49.3516 17.3367C49.3516 16.6483 49.4984 16.0003 49.792 15.3929C50.0957 14.7854 50.526 14.2488 51.0829 13.7831C51.6498 13.3072 52.3383 12.9377 53.1482 12.6745C53.9683 12.4011 54.8896 12.2644 55.9122 12.2644C57.3397 12.2644 58.5648 12.4922 59.5873 12.9478C60.62 13.4034 61.4097 14.0311 61.9564 14.831C62.5133 15.6207 62.7917 16.5217 62.7917 17.5342H58.418C58.418 17.1089 58.3269 16.7293 58.1446 16.3952C57.9725 16.0509 57.6991 15.7826 57.3245 15.5903C56.9601 15.3878 56.4842 15.2865 55.897 15.2865C55.411 15.2865 54.9909 15.3726 54.6365 15.5447C54.2822 15.7067 54.0088 15.9294 53.8164 16.2129C53.6342 16.4863 53.5431 16.79 53.5431 17.1241C53.5431 17.3772 53.5937 17.605 53.695 17.8075C53.8063 17.9999 53.9835 18.1771 54.2265 18.339C54.4695 18.501 54.7833 18.6529 55.1681 18.7946C55.5629 18.9263 56.0489 19.0477 56.626 19.1591C57.8105 19.4021 58.8685 19.721 59.7999 20.1159C60.7314 20.5006 61.4705 21.0271 62.0172 21.6953C62.5639 22.3534 62.8373 23.219 62.8373 24.2922C62.8373 25.0211 62.6753 25.6893 62.3513 26.2968C62.0273 26.9043 61.5616 27.4358 60.9541 27.8914C60.3467 28.3369 59.6177 28.6861 58.7673 28.9393C57.9269 29.1822 56.9803 29.3037 55.9274 29.3037C54.3986 29.3037 53.1027 29.0304 52.0396 28.4837C50.9867 27.9369 50.1869 27.2434 49.6401 26.4031C49.1036 25.5527 48.8353 24.682 48.8353 23.791H52.9812C53.0014 24.3884 53.1533 24.8693 53.4368 25.2337C53.7304 25.5982 54.0999 25.8614 54.5454 26.0234C55.001 26.1854 55.492 26.2664 56.0185 26.2664C56.5855 26.2664 57.0562 26.1905 57.4308 26.0386C57.8054 25.8766 58.0889 25.664 58.2813 25.4008C58.4838 25.1274 58.585 24.8136 58.585 24.4592ZM64.9786 20.9511V20.6322C64.9786 19.4274 65.1507 18.3188 65.4949 17.3064C65.8391 16.2838 66.3403 15.3979 66.9984 14.6487C67.6565 13.8995 68.4664 13.3174 69.4282 12.9023C70.39 12.477 71.4936 12.2644 72.7389 12.2644C73.9842 12.2644 75.0928 12.477 76.0647 12.9023C77.0367 13.3174 77.8517 13.8995 78.5098 14.6487C79.178 15.3979 79.6842 16.2838 80.0284 17.3064C80.3727 18.3188 80.5448 19.4274 80.5448 20.6322V20.9511C80.5448 22.1458 80.3727 23.2544 80.0284 24.277C79.6842 25.2894 79.178 26.1753 78.5098 26.9346C77.8517 27.6838 77.0417 28.266 76.0799 28.6811C75.1181 29.0962 74.0146 29.3037 72.7693 29.3037C71.524 29.3037 70.4153 29.0962 69.4434 28.6811C68.4816 28.266 67.6666 27.6838 66.9984 26.9346C66.3403 26.1753 65.8391 25.2894 65.4949 24.277C65.1507 23.2544 64.9786 22.1458 64.9786 20.9511ZM69.3523 20.6322V20.9511C69.3523 21.6396 69.413 22.2825 69.5345 22.8798C69.656 23.4772 69.8484 24.0036 70.1116 24.4592C70.385 24.9047 70.7393 25.254 71.1747 25.5071C71.61 25.7602 72.1415 25.8868 72.7693 25.8868C73.3767 25.8868 73.8981 25.7602 74.3335 25.5071C74.7688 25.254 75.1181 24.9047 75.3813 24.4592C75.6446 24.0036 75.8369 23.4772 75.9584 22.8798C76.0901 22.2825 76.1559 21.6396 76.1559 20.9511V20.6322C76.1559 19.964 76.0901 19.3363 75.9584 18.7491C75.8369 18.1517 75.6395 17.6253 75.3662 17.1697C75.1029 16.704 74.7536 16.3395 74.3183 16.0762C73.8829 15.813 73.3565 15.6814 72.7389 15.6814C72.1213 15.6814 71.5948 15.813 71.1595 16.0762C70.7343 16.3395 70.385 16.704 70.1116 17.1697C69.8484 17.6253 69.656 18.1517 69.5345 18.7491C69.413 19.3363 69.3523 19.964 69.3523 20.6322ZM87.6065 15.9699V29H83.2176V12.5682H87.3332L87.6065 15.9699ZM86.9991 20.207H85.7841C85.7841 19.0629 85.9208 18.01 86.1942 17.0482C86.4777 16.0762 86.8877 15.2359 87.4243 14.5272C87.971 13.8084 88.6443 13.2516 89.4441 12.8567C90.2439 12.4618 91.1703 12.2644 92.2232 12.2644C92.9522 12.2644 93.6204 12.3758 94.2279 12.5985C94.8353 12.8111 95.3567 13.1503 95.7921 13.616C96.2375 14.0716 96.5818 14.669 96.8248 15.408C97.0677 16.137 97.1892 17.0128 97.1892 18.0353V29H92.8155V18.5213C92.8155 17.7721 92.7143 17.195 92.5118 16.79C92.3093 16.385 92.0207 16.1016 91.6461 15.9396C91.2817 15.7776 90.8413 15.6966 90.3249 15.6966C89.7579 15.6966 89.2619 15.813 88.8366 16.0459C88.4215 16.2787 88.0773 16.6027 87.8039 17.0178C87.5306 17.4228 87.3281 17.8986 87.1965 18.4453C87.0649 18.9921 86.9991 19.5793 86.9991 20.207ZM96.7792 19.7058L95.215 19.9033C95.215 18.8301 95.3466 17.8328 95.6098 16.9115C95.8832 15.9902 96.2831 15.1802 96.8096 14.4817C97.3462 13.7831 98.0093 13.2414 98.799 12.8567C99.5887 12.4618 100.5 12.2644 101.533 12.2644C102.322 12.2644 103.041 12.3809 103.689 12.6137C104.337 12.8365 104.889 13.1959 105.344 13.692C105.81 14.1779 106.164 14.8158 106.407 15.6055C106.661 16.3952 106.787 17.362 106.787 18.5061V29H102.398V18.5061C102.398 17.7468 102.297 17.1697 102.094 16.7748C101.902 16.3699 101.619 16.0914 101.244 15.9396C100.88 15.7776 100.444 15.6966 99.938 15.6966C99.4115 15.6966 98.9509 15.8029 98.556 16.0155C98.1612 16.218 97.8321 16.5015 97.5689 16.8659C97.3057 17.2304 97.1082 17.6556 96.9766 18.1416C96.845 18.6175 96.7792 19.1389 96.7792 19.7058ZM119.043 25.2945V17.9746C119.043 17.4481 118.957 16.9976 118.784 16.623C118.612 16.2382 118.344 15.9396 117.98 15.727C117.625 15.5143 117.165 15.408 116.598 15.408C116.112 15.408 115.692 15.4941 115.337 15.6662C114.983 15.8282 114.709 16.0661 114.517 16.38C114.325 16.6837 114.229 17.0431 114.229 17.4582H109.855C109.855 16.7596 110.017 16.0965 110.341 15.4688C110.665 14.8411 111.136 14.2893 111.753 13.8135C112.371 13.3275 113.105 12.9478 113.955 12.6745C114.816 12.4011 115.778 12.2644 116.841 12.2644C118.116 12.2644 119.25 12.477 120.242 12.9023C121.235 13.3275 122.014 13.9653 122.581 14.8158C123.158 15.6662 123.447 16.7293 123.447 18.0049V25.0363C123.447 25.9374 123.502 26.6765 123.614 27.2535C123.725 27.8205 123.887 28.3166 124.1 28.7418V29H119.681C119.468 28.5545 119.306 27.9977 119.195 27.3295C119.093 26.6511 119.043 25.9728 119.043 25.2945ZM119.62 18.9921L119.65 21.4675H117.205C116.628 21.4675 116.127 21.5333 115.702 21.6649C115.276 21.7965 114.927 21.9838 114.654 22.2268C114.38 22.4597 114.178 22.733 114.046 23.0469C113.925 23.3607 113.864 23.705 113.864 24.0796C113.864 24.4542 113.95 24.7933 114.122 25.0971C114.294 25.3907 114.542 25.6235 114.866 25.7956C115.19 25.9576 115.57 26.0386 116.005 26.0386C116.663 26.0386 117.235 25.907 117.721 25.6438C118.207 25.3805 118.582 25.0566 118.845 24.6718C119.119 24.2871 119.26 23.9226 119.27 23.5784L120.425 25.4312C120.263 25.8463 120.04 26.2765 119.756 26.722C119.483 27.1675 119.134 27.5877 118.709 27.9825C118.283 28.3672 117.772 28.6861 117.175 28.9393C116.577 29.1822 115.869 29.3037 115.049 29.3037C114.006 29.3037 113.059 29.0962 112.209 28.6811C111.368 28.2559 110.7 27.6737 110.204 26.9346C109.718 26.1854 109.475 25.335 109.475 24.3833C109.475 23.5227 109.637 22.7583 109.961 22.0901C110.285 21.4219 110.761 20.86 111.389 20.4044C112.026 19.9387 112.821 19.5894 113.773 19.3565C114.725 19.1136 115.828 18.9921 117.084 18.9921H119.62Z" fill="#748FFF"/>
<path d="M19.969 10.7864H5.99312C4.93408 10.7864 3.91841 11.2071 3.16956 11.956C2.4207 12.7049 2 13.7205 2 14.7796V42.7314C2 43.7904 2.4207 44.8061 3.16956 45.555C3.91841 46.3038 4.93408 46.7245 5.99312 46.7245H33.945C35.004 46.7245 36.0197 46.3038 36.7685 45.555C37.5174 44.8061 37.9381 43.7904 37.9381 42.7314V28.7555" stroke="#4979F5" stroke-width="3.99312" stroke-linecap="round" stroke-linejoin="round"/>
<path d="M34.9433 7.79153C35.7375 6.99725 36.8148 6.55103 37.9381 6.55103C39.0614 6.55103 40.1387 6.99725 40.9329 7.79153C41.7272 8.58581 42.1734 9.66309 42.1734 10.7864C42.1734 11.9097 41.7272 12.9869 40.9329 13.7812L21.9656 32.7485L13.9794 34.7451L15.9759 26.7589L34.9433 7.79153Z" stroke="#6E7698" stroke-width="3.99312" stroke-linecap="round" stroke-linejoin="round"/>
</svg>
